<?xml version="1.0" encoding="UTF-8"?>
<svg width="114px" height="24px" viewBox="0 0 114 24" version="1.1" xmlns="http://www.w3.org/2000/svg" xmlns:xlink="http://www.w3.org/1999/xlink">
    <!-- Generator: Sketch 47.1 (45422) - http://www.bohemiancoding.com/sketch -->
    <title>Thinkful Logo White</title>
    <desc>Created with Sketch.</desc>
    <defs></defs>
    <g id="V1" stroke="none" stroke-width="1" fill="none" fill-rule="evenodd">
        <g id="Full-Time---1440---PreCookie" transform="translate(-44.000000, -86.000000)" fill="#FFFFFF">
            <g id="Header" transform="translate(44.000000, 80.000000)">
                <g id="Thinkful-Logo-White" transform="translate(0.000000, 6.000000)">
                    <g>
                        <polygon id="Fill-1" points="0 0.0158656489 0.000559738134 9.17452214 7.56430115 9.17452214 7.56430115 16.9831328 9.92788871 16.9831328 9.92788871 6.85385038 2.36433388 6.85385038 2.36433388 2.33672061 17.34218 2.33672061 17.34218 0.0158656489"></polygon>
                        <polygon id="Fill-2" points="22.0494285 3.66412214e-05 22.0494285 6.83783817 14.4855005 6.83783817 14.4855005 21.6027847 7.55892766 21.6027847 7.55892766 23.9236397 16.8492746 23.9236397 16.8492746 9.15869313 24.413016 9.15869313 24.413016 3.66412214e-05"></polygon>
                        <polygon id="Fill-3" points="36.0060884 8.91378321 36.0060884 17.1181191 33.9594992 17.1181191 33.9594992 8.91378321 30.7757087 8.91378321 30.7757087 7.03390534 39.1896923 7.03390534 39.1896923 8.91378321"></polygon>
                        <polygon id="Fill-4" points="48.6804628 11.0965008 48.6804628 7.03390534 50.727052 7.03390534 50.727052 17.1181191 48.6804628 17.1181191 48.6804628 12.9692336 43.7361093 12.9692336 43.7361093 17.1181191 41.6895201 17.1181191 41.6895201 7.03390534 43.7361093 7.03390534 43.7361093 11.0965008"></polygon>
                        <polygon id="Fill-5" points="54.1578363 17.118229 56.2046121 17.118229 56.2046121 7.03401527 54.1578363 7.03401527"></polygon>
                        <polygon id="Fill-6" points="66.8988383 17.1181557 61.690475 10.3831328 61.6831984 17.1181557 59.6366092 17.1181557 59.6366092 7.03394198 61.5511002 7.03394198 66.7667401 13.7687817 66.7667401 7.03394198 68.8207925 7.03394198 68.8207925 17.1181557"></polygon>
                        <polygon id="Fill-7" points="74.2982406 12.9691786 74.2982406 17.1180641 72.2514648 17.1180641 72.2514648 7.03403359 74.2982406 7.03403359 74.2982406 11.1180641 75.266401 11.1180641 78.662892 7.03403359 81.2304108 7.03403359 76.9243453 11.9536672 81.5530065 17.1180641 78.8977954 17.1180641 75.2445712 12.9691786"></polygon>
                        <polygon id="Fill-8" points="85.8422799 13.033942 85.8422799 17.1181557 83.7955041 17.1181557 83.7955041 7.03394198 91.336856 7.03394198 91.336856 8.88505649 85.8422799 8.88505649 85.8422799 11.1828275 90.9922439 11.1828275 90.9922439 13.033942"></polygon>
                        <g id="Group-13" transform="translate(94.036007, 6.885435)">
                            <path d="M4.56856399,10.4127023 C1.95701244,10.4127023 0.144766939,8.99377099 0.144766939,6.20610687 L0.144766939,0.148580153 L2.19919247,0.148580153 L2.19919247,6.10534351 C2.19919247,7.7549313 3.15988969,8.48958779 4.56856399,8.48958779 C5.97686514,8.48958779 6.93793552,7.7549313 6.93793552,6.10534351 L6.93793552,0.148580153 L8.99180131,0.148580153 L8.99180131,6.20610687 C8.99180131,8.99377099 7.17974239,10.4127023 4.56856399,10.4127023" id="Fill-9"></path>
                            <polygon id="Fill-11" points="12.3050406 10.2327206 12.3050406 0.14850687 14.3518164 0.14850687 14.3518164 8.35265954 19.7801568 8.35265954 19.7801568 10.2327206"></polygon>
                        </g>
                    </g>
                </g>
            </g>
        </g>
    </g>
</svg>